<svg width="100" height="100" viewBox="0 0 100 100" fill="none" xmlns="http://www.w3.org/2000/svg">
<g id="favicon ">
<path d="M100 50.2347C100 63.8498 94.3662 76.5258 85.446 85.446C76.5258 94.3662 63.8498 100 50.2347 100C45.8361 100 41.0253 99.5879 36.9608 98.3775C40.3186 97.4413 42.9291 96.0723 45.5396 93.8968C54.4598 85.4461 53.9903 69.4837 44.6007 46.0095C39.4363 33.3335 39.4363 24.4133 44.1312 18.31C51.1734 8.92032 69.9531 8.4507 79.3427 9.38967C81.6901 10.7981 83.568 12.676 85.446 14.554L85.446 14.554C94.3662 23.9437 100 36.1502 100 50.2347Z" fill="url(#paint0_linear_1032_3)"/>
<path d="M50.2347 0C54.4601 0 58.6854 0.469484 62.4413 1.40845C53.0516 2.8169 43.6617 5.63393 37.5584 13.1457C30.9856 21.5964 30.5161 33.3335 37.0889 48.8264C44.6007 68.5447 46.0091 82.1598 39.9058 87.7936C34.9794 92.2721 26.2079 91.624 18.482 88.7019C18.1095 88.4033 17.7392 88.1004 17.3709 87.7934C6.57277 78.4038 0 65.2582 0 50.2347C0 36.6197 5.6338 23.9437 14.554 15.0235C23.9437 5.6338 36.1502 0 50.2347 0Z" fill="url(#paint1_linear_1032_3)"/>
</g>
<defs>
<linearGradient id="paint0_linear_1032_3" x1="0" y1="50.0873" x2="100.175" y2="50.0873" gradientUnits="userSpaceOnUse">
<stop stop-color="#48CEFF"/>
<stop offset="1" stop-color="#FFD12C"/>
</linearGradient>
<linearGradient id="paint1_linear_1032_3" x1="0" y1="50.0873" x2="100.175" y2="50.0873" gradientUnits="userSpaceOnUse">
<stop stop-color="#48CEFF"/>
<stop offset="1" stop-color="#FFD12C"/>
</linearGradient>
</defs>
</svg>
