<svg xmlns="http://www.w3.org/2000/svg" width="354" height="307" viewBox="0 0 354 307" fill="none">
  <g opacity="0.4" filter="url(#filter0_i_10209_82)">
    <path d="M208.803 5.33383C226.892 9.7073 244.147 16.8779 260.089 27.1357C302.856 54.7359 328.678 101.195 341.533 149.475C343.868 158.115 345.786 166.789 347.256 175.624C351.953 202.064 357.61 231.203 348.732 257.536C339.886 283.741 315.355 299.752 289.034 304.937C247.984 313.005 214.019 292.653 186.654 263.293C157.656 232.296 125.07 205.869 81.527 200.476C59.7555 197.779 39.7436 198.936 22.1069 183.475C-1.03547 163.363 -4.51528 133.675 6.18834 106.021C22.6606 62.8681 55.0421 30.6478 97.9526 13.4823C132.825 -0.360291 172.081 -3.41222 208.803 5.33383Z" fill="black"/>
  </g>
  <defs>
    <filter id="filter0_i_10209_82" x="0.396484" y="0.418579" width="363.011" height="306.296" filterUnits="userSpaceOnUse" color-interpolation-filters="sRGB">
      <feFlood flood-opacity="0" result="BackgroundImageFix"/>
      <feBlend mode="normal" in="SourceGraphic" in2="BackgroundImageFix" result="shape"/>
      <feColorMatrix in="SourceAlpha" type="matrix" values="0 0 0 0 0 0 0 0 0 0 0 0 0 0 0 0 0 0 127 0" result="hardAlpha"/>
      <feOffset dx="10"/>
      <feGaussianBlur stdDeviation="5"/>
      <feComposite in2="hardAlpha" operator="arithmetic" k2="-1" k3="1"/>
      <feColorMatrix type="matrix" values="0 0 0 0 0.282353 0 0 0 0 0.807843 0 0 0 0 1 0 0 0 1 0"/>
      <feBlend mode="normal" in2="shape" result="effect1_innerShadow_10209_82"/>
    </filter>
  </defs>
</svg>