<svg width="1396" height="1396" viewBox="0 0 1396 1396" fill="none" xmlns="http://www.w3.org/2000/svg">
<mask id="mask0_11347_223" style="mask-type:alpha" maskUnits="userSpaceOnUse" x="203" y="203" width="989" height="989">
<circle cx="697.664" cy="697.664" r="494" transform="rotate(48 697.664 697.664)" fill="url(#paint0_linear_11347_223)"/>
</mask>
<g mask="url(#mask0_11347_223)">
<g opacity="0.4" filter="url(#filter0_ii_11347_223)">
<path d="M954.872 426.438C1025.93 511.699 1078.17 616.496 1103.11 719.128C1121.65 796.027 1141.12 988.128 1024.02 966.317C927.133 948.312 826.31 899.773 746.896 957.475C697.459 993.362 662.171 1049.72 600.353 1068.29C546.628 1084.74 479.908 1074.08 424.712 1040.53C306.754 968.599 269.125 811.83 268.549 695.025C267.707 576.735 306.186 464.449 377.469 383.443C387.437 372.311 398.031 361.478 409.072 351.537C487.752 281.124 601.898 246.929 718.969 273.075C809.395 293.019 892.214 351.299 954.872 426.438Z" fill="url(#paint1_linear_11347_223)"/>
</g>
</g>
<defs>
<filter id="filter0_ii_11347_223" x="218.536" y="204.315" width="958.573" height="871.584" filterUnits="userSpaceOnUse" color-interpolation-filters="sRGB">
<feFlood flood-opacity="0" result="BackgroundImageFix"/>
<feBlend mode="normal" in="SourceGraphic" in2="BackgroundImageFix" result="shape"/>
<feColorMatrix in="SourceAlpha" type="matrix" values="0 0 0 0 0 0 0 0 0 0 0 0 0 0 0 0 0 0 127 0" result="hardAlpha"/>
<feOffset dx="100" dy="-80"/>
<feGaussianBlur stdDeviation="30"/>
<feComposite in2="hardAlpha" operator="arithmetic" k2="-1" k3="1"/>
<feColorMatrix type="matrix" values="0 0 0 0 0.282353 0 0 0 0 0.807843 0 0 0 0 1 0 0 0 1 0"/>
<feBlend mode="normal" in2="shape" result="effect1_innerShadow_11347_223"/>
<feColorMatrix in="SourceAlpha" type="matrix" values="0 0 0 0 0 0 0 0 0 0 0 0 0 0 0 0 0 0 127 0" result="hardAlpha"/>
<feOffset dx="-50" dy="-10"/>
<feGaussianBlur stdDeviation="25"/>
<feComposite in2="hardAlpha" operator="arithmetic" k2="-1" k3="1"/>
<feColorMatrix type="matrix" values="0 0 0 0 1 0 0 0 0 0.819608 0 0 0 0 0.172549 0 0 0 1 0"/>
<feBlend mode="normal" in2="effect1_innerShadow_11347_223" result="effect2_innerShadow_11347_223"/>
</filter>
<linearGradient id="paint0_linear_11347_223" x1="613.927" y1="560.13" x2="613.927" y2="465.634" gradientUnits="userSpaceOnUse">
<stop stop-color="#D9D9D9"/>
<stop offset="1" stop-color="#D9D9D9" stop-opacity="0"/>
</linearGradient>
<linearGradient id="paint1_linear_11347_223" x1="353.684" y1="955.997" x2="974.782" y2="404.607" gradientUnits="userSpaceOnUse">
<stop stop-color="#080C14"/>
<stop offset="1" stop-color="#080C14" stop-opacity="0"/>
</linearGradient>
</defs>
</svg>
