<svg width="34" height="34" viewBox="0 0 34 34" fill="none" xmlns="http://www.w3.org/2000/svg">
<g id="Group 196">
<path id="Union" fill-rule="evenodd" clip-rule="evenodd" d="M7.4375 8.80357C7.4375 8.04911 8.04911 7.4375 8.80357 7.4375H25.1964C25.9509 7.4375 26.5625 8.04911 26.5625 8.80357C26.5625 9.55803 25.9509 10.1696 25.1964 10.1696H8.80357C8.04911 10.1696 7.4375 9.55803 7.4375 8.80357ZM7.4375 25.1964C7.4375 24.442 8.04911 23.8304 8.80357 23.8304H25.1964C25.9509 23.8304 26.5625 24.442 26.5625 25.1964C26.5625 25.9509 25.9509 26.5625 25.1964 26.5625H8.80357C8.04911 26.5625 7.4375 25.9509 7.4375 25.1964ZM14.2676 15.6339C13.5131 15.6339 12.9015 16.2455 12.9015 17C12.9015 17.7545 13.5131 18.3661 14.2676 18.3661H25.1961C25.9506 18.3661 26.5622 17.7545 26.5622 17C26.5622 16.2455 25.9506 15.6339 25.1961 15.6339H14.2676Z" fill="white"/>
</g>
</svg>
