<svg xmlns="http://www.w3.org/2000/svg" width="102" height="32" viewBox="0 0 102 32" fill="none">
  <path d="M27.3427 27.3427C30.1972 24.4883 32 20.4319 32 16.0751C32 11.5681 30.1972 7.66197 27.3427 4.65728C26.7418 4.05634 26.1408 3.4554 25.3897 3.00469C23.7371 1.80282 21.9343 0.901408 19.9812 0.450704C18.7793 0.150235 17.4272 0 16.0751 0C11.5681 0 7.66197 1.80282 4.65728 4.80751C1.80282 7.66197 0 11.7183 0 16.0751C0 20.8826 2.10329 25.0892 5.55869 28.0939C5.67655 28.1921 5.79506 28.2891 5.91425 28.3846C8.38654 29.3197 11.1934 29.5271 12.7699 28.0939C14.7229 26.2911 14.2722 21.9343 11.8685 15.6245C9.76517 10.6667 9.9154 6.91084 12.0187 4.20661C13.9717 1.80286 16.9765 0.901409 19.9812 0.450704C21.9343 0.901408 23.7371 1.80282 25.3897 3.00469C22.385 2.70423 16.3755 2.8545 14.122 5.8592C12.6196 7.81225 12.6196 10.6667 14.2722 14.723C17.2769 22.2348 17.4271 27.3428 14.5727 30.047C13.7373 30.7431 12.902 31.1812 11.8274 31.4808C13.1281 31.8681 14.6675 32 16.0751 32C20.4319 32 24.4883 30.1972 27.3427 27.3427Z" fill="url(#paint0_linear_10209_188)"/>
  <path d="M60.1044 20.9598C60.1044 24.8391 57.0114 28 53.2155 28H40.2812C40.703 26.8506 41.2653 25.8448 41.9683 24.9828H53.2155C55.3243 24.9828 57.152 23.2586 57.152 20.9598C57.152 19.8103 56.7302 18.8046 56.0273 18.0862C55.3243 17.3678 54.3402 16.9368 53.2155 16.9368H46.8889C43.093 16.9368 40 13.9195 40 10.0402C40 8.02874 40.703 6.3046 41.9683 5.15517C43.2336 3.71839 44.9207 3 46.8889 3H59.542C59.4014 3.14368 59.2609 3.28736 59.2609 3.57471C58.8391 4.2931 58.4173 5.15517 58.2767 6.01724H46.8889C44.7801 6.01724 42.9524 7.74138 42.9524 10.0402C42.9524 11.1897 43.3742 12.1954 44.0771 12.9138C44.7801 13.6322 45.7642 14.0632 46.8889 14.0632H53.2155C57.0114 13.9195 60.1044 17.0805 60.1044 20.9598Z" fill="white"/>
  <path d="M66.5715 14.0632H79.3652L75.9911 17.0805H66.5715V28H63.6191V6.01724H61.0885C61.1588 5.87362 61.2291 5.6941 61.2993 5.51457C61.3696 5.33498 61.44 5.15517 61.5103 5.01149C61.9321 4.2931 62.4944 3.57471 63.1974 3H79.6464C80.2088 3.57471 80.7712 4.2931 81.0523 5.01149C81.0523 5.08333 81.0875 5.11925 81.1226 5.15517C81.1578 5.19109 81.1929 5.22701 81.1929 5.29885C81.3335 5.58619 81.4741 5.87357 81.4741 6.01724H66.5715V14.0632Z" fill="white"/>
  <path d="M102 6.01724V3H83.3015C83.3015 3.07184 83.3367 3.10776 83.3718 3.14368C83.4069 3.1796 83.4421 3.21552 83.4421 3.28736C83.4421 3.3592 83.4772 3.43103 83.5124 3.50287C83.5475 3.57471 83.5827 3.64655 83.5827 3.71839C84.0045 4.43678 84.2856 5.15517 84.4262 6.01724H88.7845V28H92.0181V6.01724H102Z" fill="white"/>
  <defs>
    <linearGradient id="paint0_linear_10209_188" x1="0" y1="16.0279" x2="32.0559" y2="16.0279" gradientUnits="userSpaceOnUse">
      <stop stop-color="#48CEFF"/>
      <stop offset="1" stop-color="#FFD12C"/>
    </linearGradient>
  </defs>
</svg>